<mxfile host="app.diagrams.net" modified="2022-01-24T21:14:27.499Z" agent="5.0 (Windows NT 10.0; Win64; x64) AppleWebKit/537.36 (KHTML, like Gecko) Chrome/97.0.4692.99 Safari/537.36" etag="7BlN4FhS5aQZki4Aj74k" version="16.4.6" type="github">
  <diagram id="C5RBs43oDa-KdzZeNtuy" name="Page-1">
    <mxGraphModel dx="1723" dy="544" grid="1" gridSize="10" guides="1" tooltips="1" connect="1" arrows="1" fold="1" page="1" pageScale="1" pageWidth="827" pageHeight="1169" math="0" shadow="0">
      <root>
        <mxCell id="WIyWlLk6GJQsqaUBKTNV-0" />
        <mxCell id="WIyWlLk6GJQsqaUBKTNV-1" parent="WIyWlLk6GJQsqaUBKTNV-0" />
        <mxCell id="WIyWlLk6GJQsqaUBKTNV-3" value="Homepage" style="rounded=1;whiteSpace=wrap;html=1;fontSize=12;glass=0;strokeWidth=1;shadow=0;" parent="WIyWlLk6GJQsqaUBKTNV-1" vertex="1">
          <mxGeometry x="310" y="40" width="120" height="40" as="geometry" />
        </mxCell>
        <mxCell id="IG7dO1KnfnvPLJ4MgdLY-0" value="Upcoming Events" style="ellipse;whiteSpace=wrap;html=1;fontColor=#9933FF;" parent="WIyWlLk6GJQsqaUBKTNV-1" vertex="1">
          <mxGeometry x="320" y="150" width="100" height="70" as="geometry" />
        </mxCell>
        <mxCell id="IG7dO1KnfnvPLJ4MgdLY-4" value="About" style="ellipse;whiteSpace=wrap;html=1;fontColor=#9933FF;" parent="WIyWlLk6GJQsqaUBKTNV-1" vertex="1">
          <mxGeometry x="190" y="150" width="100" height="70" as="geometry" />
        </mxCell>
        <mxCell id="IG7dO1KnfnvPLJ4MgdLY-5" value="Social" style="ellipse;whiteSpace=wrap;html=1;fontColor=#9933FF;" parent="WIyWlLk6GJQsqaUBKTNV-1" vertex="1">
          <mxGeometry x="450" y="150" width="100" height="70" as="geometry" />
        </mxCell>
        <mxCell id="IG7dO1KnfnvPLJ4MgdLY-6" value="Community Login" style="ellipse;whiteSpace=wrap;html=1;fontColor=#9933FF;" parent="WIyWlLk6GJQsqaUBKTNV-1" vertex="1">
          <mxGeometry x="50" y="150" width="100" height="70" as="geometry" />
        </mxCell>
        <mxCell id="IG7dO1KnfnvPLJ4MgdLY-7" value="Suggestions" style="ellipse;whiteSpace=wrap;html=1;fontColor=#9933FF;" parent="WIyWlLk6GJQsqaUBKTNV-1" vertex="1">
          <mxGeometry x="590" y="150" width="100" height="70" as="geometry" />
        </mxCell>
        <mxCell id="IG7dO1KnfnvPLJ4MgdLY-9" value="" style="endArrow=classic;html=1;rounded=0;fontColor=#9933FF;exitX=0.5;exitY=1;exitDx=0;exitDy=0;" parent="WIyWlLk6GJQsqaUBKTNV-1" source="WIyWlLk6GJQsqaUBKTNV-3" edge="1">
          <mxGeometry width="50" height="50" relative="1" as="geometry">
            <mxPoint x="355" y="130" as="sourcePoint" />
            <mxPoint x="370" y="110" as="targetPoint" />
          </mxGeometry>
        </mxCell>
        <mxCell id="IG7dO1KnfnvPLJ4MgdLY-10" value="" style="endArrow=none;html=1;rounded=0;fontColor=#9933FF;" parent="WIyWlLk6GJQsqaUBKTNV-1" edge="1">
          <mxGeometry width="50" height="50" relative="1" as="geometry">
            <mxPoint x="100" y="110" as="sourcePoint" />
            <mxPoint x="640" y="110" as="targetPoint" />
            <Array as="points">
              <mxPoint x="370" y="110" />
            </Array>
          </mxGeometry>
        </mxCell>
        <mxCell id="IG7dO1KnfnvPLJ4MgdLY-11" value="" style="endArrow=classic;html=1;rounded=0;fontColor=#9933FF;" parent="WIyWlLk6GJQsqaUBKTNV-1" edge="1">
          <mxGeometry width="50" height="50" relative="1" as="geometry">
            <mxPoint x="100" y="110" as="sourcePoint" />
            <mxPoint x="99.5" y="150" as="targetPoint" />
          </mxGeometry>
        </mxCell>
        <mxCell id="IG7dO1KnfnvPLJ4MgdLY-12" value="" style="endArrow=classic;html=1;rounded=0;fontColor=#9933FF;exitX=0.5;exitY=1;exitDx=0;exitDy=0;entryX=0.5;entryY=0;entryDx=0;entryDy=0;" parent="WIyWlLk6GJQsqaUBKTNV-1" target="IG7dO1KnfnvPLJ4MgdLY-4" edge="1">
          <mxGeometry width="50" height="50" relative="1" as="geometry">
            <mxPoint x="239.5" y="110" as="sourcePoint" />
            <mxPoint x="239.5" y="140" as="targetPoint" />
          </mxGeometry>
        </mxCell>
        <mxCell id="IG7dO1KnfnvPLJ4MgdLY-13" value="" style="endArrow=classic;html=1;rounded=0;fontColor=#9933FF;exitX=0.5;exitY=1;exitDx=0;exitDy=0;entryX=0.5;entryY=0;entryDx=0;entryDy=0;" parent="WIyWlLk6GJQsqaUBKTNV-1" target="IG7dO1KnfnvPLJ4MgdLY-0" edge="1">
          <mxGeometry width="50" height="50" relative="1" as="geometry">
            <mxPoint x="369.5" y="110" as="sourcePoint" />
            <mxPoint x="369.5" y="140" as="targetPoint" />
          </mxGeometry>
        </mxCell>
        <mxCell id="IG7dO1KnfnvPLJ4MgdLY-14" value="" style="endArrow=classic;html=1;rounded=0;fontColor=#9933FF;exitX=0.5;exitY=1;exitDx=0;exitDy=0;entryX=0.5;entryY=0;entryDx=0;entryDy=0;" parent="WIyWlLk6GJQsqaUBKTNV-1" target="IG7dO1KnfnvPLJ4MgdLY-5" edge="1">
          <mxGeometry width="50" height="50" relative="1" as="geometry">
            <mxPoint x="499.5" y="110" as="sourcePoint" />
            <mxPoint x="499.5" y="140" as="targetPoint" />
          </mxGeometry>
        </mxCell>
        <mxCell id="IG7dO1KnfnvPLJ4MgdLY-15" value="" style="endArrow=classic;html=1;rounded=0;fontColor=#9933FF;exitX=0.5;exitY=1;exitDx=0;exitDy=0;entryX=0.5;entryY=0;entryDx=0;entryDy=0;" parent="WIyWlLk6GJQsqaUBKTNV-1" target="IG7dO1KnfnvPLJ4MgdLY-7" edge="1">
          <mxGeometry width="50" height="50" relative="1" as="geometry">
            <mxPoint x="640" y="110" as="sourcePoint" />
            <mxPoint x="640" y="140" as="targetPoint" />
          </mxGeometry>
        </mxCell>
        <mxCell id="IG7dO1KnfnvPLJ4MgdLY-17" value="Scheduled Events" style="rounded=0;whiteSpace=wrap;html=1;fontColor=#9933FF;" parent="WIyWlLk6GJQsqaUBKTNV-1" vertex="1">
          <mxGeometry x="320" y="250" width="100" height="60" as="geometry" />
        </mxCell>
        <mxCell id="IG7dO1KnfnvPLJ4MgdLY-19" value="" style="endArrow=classic;html=1;rounded=0;fontColor=#9933FF;exitX=0.5;exitY=1;exitDx=0;exitDy=0;entryX=-0.04;entryY=0.617;entryDx=0;entryDy=0;entryPerimeter=0;" parent="WIyWlLk6GJQsqaUBKTNV-1" source="IG7dO1KnfnvPLJ4MgdLY-6" target="IG7dO1KnfnvPLJ4MgdLY-25" edge="1">
          <mxGeometry width="50" height="50" relative="1" as="geometry">
            <mxPoint x="700" y="350" as="sourcePoint" />
            <mxPoint x="310" y="390" as="targetPoint" />
            <Array as="points">
              <mxPoint x="100" y="387" />
            </Array>
          </mxGeometry>
        </mxCell>
        <mxCell id="IG7dO1KnfnvPLJ4MgdLY-20" value="" style="endArrow=classic;html=1;rounded=0;fontColor=#9933FF;entryX=0.5;entryY=1;entryDx=0;entryDy=0;" parent="WIyWlLk6GJQsqaUBKTNV-1" target="IG7dO1KnfnvPLJ4MgdLY-7" edge="1">
          <mxGeometry width="50" height="50" relative="1" as="geometry">
            <mxPoint x="100" y="240" as="sourcePoint" />
            <mxPoint x="640" y="240" as="targetPoint" />
            <Array as="points">
              <mxPoint x="640" y="240" />
            </Array>
          </mxGeometry>
        </mxCell>
        <mxCell id="IG7dO1KnfnvPLJ4MgdLY-21" value="" style="endArrow=none;dashed=1;html=1;dashPattern=1 3;strokeWidth=2;rounded=0;fontColor=#9933FF;entryX=0.5;entryY=1;entryDx=0;entryDy=0;exitX=0.5;exitY=0;exitDx=0;exitDy=0;" parent="WIyWlLk6GJQsqaUBKTNV-1" source="IG7dO1KnfnvPLJ4MgdLY-17" target="IG7dO1KnfnvPLJ4MgdLY-0" edge="1">
          <mxGeometry width="50" height="50" relative="1" as="geometry">
            <mxPoint x="390" y="310" as="sourcePoint" />
            <mxPoint x="440" y="260" as="targetPoint" />
          </mxGeometry>
        </mxCell>
        <mxCell id="IG7dO1KnfnvPLJ4MgdLY-22" value="TikTok/FB/YT&lt;br&gt;Twitch" style="rounded=0;whiteSpace=wrap;html=1;fontColor=#9933FF;" parent="WIyWlLk6GJQsqaUBKTNV-1" vertex="1">
          <mxGeometry x="450" y="250" width="100" height="60" as="geometry" />
        </mxCell>
        <mxCell id="IG7dO1KnfnvPLJ4MgdLY-23" value="" style="endArrow=none;dashed=1;html=1;dashPattern=1 3;strokeWidth=2;rounded=0;fontColor=#9933FF;entryX=0.5;entryY=1;entryDx=0;entryDy=0;exitX=0.5;exitY=0;exitDx=0;exitDy=0;" parent="WIyWlLk6GJQsqaUBKTNV-1" edge="1">
          <mxGeometry width="50" height="50" relative="1" as="geometry">
            <mxPoint x="499.5" y="250" as="sourcePoint" />
            <mxPoint x="499.5" y="220" as="targetPoint" />
            <Array as="points">
              <mxPoint x="499.5" y="240" />
            </Array>
          </mxGeometry>
        </mxCell>
        <mxCell id="IG7dO1KnfnvPLJ4MgdLY-24" value="" style="endArrow=none;dashed=1;html=1;dashPattern=1 3;strokeWidth=2;rounded=0;fontColor=#9933FF;entryX=0.5;entryY=1;entryDx=0;entryDy=0;" parent="WIyWlLk6GJQsqaUBKTNV-1" target="IG7dO1KnfnvPLJ4MgdLY-17" edge="1">
          <mxGeometry width="50" height="50" relative="1" as="geometry">
            <mxPoint x="370" y="350" as="sourcePoint" />
            <mxPoint x="440" y="260" as="targetPoint" />
          </mxGeometry>
        </mxCell>
        <mxCell id="IG7dO1KnfnvPLJ4MgdLY-25" value="SMS Notifications" style="rounded=0;whiteSpace=wrap;html=1;fontColor=#9933FF;" parent="WIyWlLk6GJQsqaUBKTNV-1" vertex="1">
          <mxGeometry x="320" y="350" width="100" height="60" as="geometry" />
        </mxCell>
        <mxCell id="IG7dO1KnfnvPLJ4MgdLY-26" value="" style="endArrow=classic;html=1;rounded=0;fontColor=#9933FF;exitX=0.5;exitY=1;exitDx=0;exitDy=0;entryX=1;entryY=0.5;entryDx=0;entryDy=0;" parent="WIyWlLk6GJQsqaUBKTNV-1" source="IG7dO1KnfnvPLJ4MgdLY-22" target="IG7dO1KnfnvPLJ4MgdLY-25" edge="1">
          <mxGeometry width="50" height="50" relative="1" as="geometry">
            <mxPoint x="590" y="430" as="sourcePoint" />
            <mxPoint x="640" y="380" as="targetPoint" />
            <Array as="points">
              <mxPoint x="500" y="380" />
            </Array>
          </mxGeometry>
        </mxCell>
        <mxCell id="IG7dO1KnfnvPLJ4MgdLY-27" value="" style="endArrow=classic;html=1;rounded=0;fontColor=#9933FF;exitX=1;exitY=0.5;exitDx=0;exitDy=0;entryX=0.5;entryY=0;entryDx=0;entryDy=0;" parent="WIyWlLk6GJQsqaUBKTNV-1" source="IG7dO1KnfnvPLJ4MgdLY-7" target="IG7dO1KnfnvPLJ4MgdLY-28" edge="1">
          <mxGeometry width="50" height="50" relative="1" as="geometry">
            <mxPoint x="390" y="310" as="sourcePoint" />
            <mxPoint x="730" y="185" as="targetPoint" />
            <Array as="points">
              <mxPoint x="730" y="185" />
            </Array>
          </mxGeometry>
        </mxCell>
        <mxCell id="IG7dO1KnfnvPLJ4MgdLY-28" value="Game/Challenge&lt;br&gt;Movie/Music" style="rounded=0;whiteSpace=wrap;html=1;fontColor=#9933FF;" parent="WIyWlLk6GJQsqaUBKTNV-1" vertex="1">
          <mxGeometry x="680" y="250" width="100" height="60" as="geometry" />
        </mxCell>
      </root>
    </mxGraphModel>
  </diagram>
</mxfile>
